<svg xmlns="http://www.w3.org/2000/svg" viewBox="0 0 800 400">
  <defs>
    <linearGradient id="bgGrad" x1="0%" y1="0%" x2="100%" y2="100%">
      <stop offset="0%" style="stop-color:#6366F1;stop-opacity:1" />
      <stop offset="50%" style="stop-color:#8B5CF6;stop-opacity:1" />
      <stop offset="100%" style="stop-color:#A78BFA;stop-opacity:1" />
    </linearGradient>
    <linearGradient id="heartGrad" x1="0%" y1="0%" x2="100%" y2="100%">
      <stop offset="0%" style="stop-color:#EC4899;stop-opacity:1" />
      <stop offset="100%" style="stop-color:#F472B6;stop-opacity:1" />
    </linearGradient>
    <linearGradient id="deviceGrad" x1="0%" y1="0%" x2="100%" y2="100%">
      <stop offset="0%" style="stop-color:#475569;stop-opacity:1" />
      <stop offset="100%" style="stop-color:#64748B;stop-opacity:1" />
    </linearGradient>
  </defs>
  <rect width="800" height="400" fill="url(#bgGrad)"/>
  <circle cx="650" cy="80" r="60" fill="rgba(255,255,255,0.1)"/>
  <circle cx="720" cy="150" r="40" fill="rgba(255,255,255,0.08)"/>
  <circle cx="100" cy="320" r="50" fill="rgba(255,255,255,0.1)"/>
  <g transform="translate(480, 30)">
    <path d="M100,30 C60,-10 0,20 0,70 C0,120 50,160 100,200 C150,160 200,120 200,70 C200,20 140,-10 100,30" fill="url(#heartGrad)" opacity="0.9"/>
    <ellipse cx="100" cy="250" rx="35" ry="45" fill="url(#deviceGrad)" opacity="0.9"/>
    <rect x="85" y="200" width="30" height="60" rx="5" fill="#475569"/>
    <path d="M100,205 L100,140" fill="none" stroke="white" stroke-width="4" stroke-dasharray="5,3"/>
    <circle cx="100" cy="140" r="8" fill="#10B981"/>
    <text x="100" y="255" font-family="Arial, sans-serif" font-size="10" fill="white" text-anchor="middle">LVAD</text>
    <path d="M40,100 L60,100 L70,70 L85,130 L100,90 L110,110 L120,100 L160,100" fill="none" stroke="white" stroke-width="2" opacity="0.8"/>
    <circle cx="100" cy="100" r="12" fill="rgba(16,185,129,0.6)">
      <animate attributeName="r" values="12;18;12" dur="1s" repeatCount="indefinite"/>
      <animate attributeName="opacity" values="0.6;0.3;0.6" dur="1s" repeatCount="indefinite"/>
    </circle>
  </g>
  <text x="60" y="100" font-family="Arial, sans-serif" font-size="38" font-weight="bold" fill="white">LVAD</text>
  <text x="60" y="150" font-family="Arial, sans-serif" font-size="22" fill="rgba(255,255,255,0.9)">Ventricular Assist Device</text>
  <g transform="translate(60, 190)">
    <rect x="0" y="0" width="130" height="50" rx="10" fill="rgba(255,255,255,0.15)"/>
    <text x="65" y="22" font-family="Arial, sans-serif" font-size="11" fill="white" text-anchor="middle">Bridge Therapy</text>
    <text x="65" y="38" font-family="Arial, sans-serif" font-size="10" fill="rgba(255,255,255,0.8)" text-anchor="middle">to Transplant</text>
  </g>
  <g transform="translate(210, 190)">
    <rect x="0" y="0" width="130" height="50" rx="10" fill="rgba(255,255,255,0.15)"/>
    <text x="65" y="22" font-family="Arial, sans-serif" font-size="11" fill="white" text-anchor="middle">Continuous</text>
    <text x="65" y="38" font-family="Arial, sans-serif" font-size="10" fill="rgba(255,255,255,0.8)" text-anchor="middle">Support</text>
  </g>
  <text x="60" y="330" font-family="Arial, sans-serif" font-size="15" fill="rgba(255,255,255,0.8)">Assoc. Prof. Dr. Habib CIL | Cardiology Specialist</text>
</svg>
