<svg xmlns="http://www.w3.org/2000/svg" viewBox="0 0 800 400">
  <defs>
    <linearGradient id="bgGrad" x1="0%" y1="0%" x2="100%" y2="100%">
      <stop offset="0%" style="stop-color:#6366F1;stop-opacity:1" />
      <stop offset="50%" style="stop-color:#8B5CF6;stop-opacity:1" />
      <stop offset="100%" style="stop-color:#A78BFA;stop-opacity:1" />
    </linearGradient>
    <linearGradient id="heartGrad" x1="0%" y1="0%" x2="0%" y2="100%">
      <stop offset="0%" style="stop-color:#EC4899;stop-opacity:1" />
      <stop offset="100%" style="stop-color:#F472B6;stop-opacity:1" />
    </linearGradient>
  </defs>

  <rect width="800" height="400" fill="url(#bgGrad)"/>

  <circle cx="150" cy="80" r="60" fill="rgba(255,255,255,0.1)"/>
  <circle cx="80" cy="150" r="40" fill="rgba(255,255,255,0.08)"/>
  <circle cx="700" cy="320" r="50" fill="rgba(255,255,255,0.1)"/>

  <g transform="translate(100, 80)">
    <path d="M 100 30 C 60 -10, 0 20, 0 60 C 0 110, 100 160, 100 160 C 100 160, 200 110, 200 60 C 200 20, 140 -10, 100 30"
          fill="url(#heartGrad)" opacity="0.9"/>
    <rect x="85" y="50" width="30" height="80" rx="5" fill="rgba(255,255,255,0.9)"/>
    <rect x="60" y="75" width="80" height="30" rx="5" fill="rgba(255,255,255,0.9)"/>
    <circle cx="100" cy="90" r="50" stroke="rgba(255,255,255,0.5)" stroke-width="2" fill="none" stroke-dasharray="8,4">
      <animate attributeName="r" values="45;55;45" dur="2s" repeatCount="indefinite"/>
    </circle>
  </g>

  <text x="740" y="100" font-family="Arial, sans-serif" font-size="28" font-weight="bold" fill="white" text-anchor="end" direction="rtl">
    التدخل التاجي عبر الجلد
  </text>
  <text x="740" y="145" font-family="Arial, sans-serif" font-size="28" font-weight="bold" fill="white" text-anchor="end" direction="rtl">
    (PCI)
  </text>
  <text x="740" y="190" font-family="Arial, sans-serif" font-size="22" fill="rgba(255,255,255,0.9)" text-anchor="end" direction="rtl">
    علاج الدعامة
  </text>

  <rect x="440" y="280" width="300" height="50" rx="25" fill="rgba(255,255,255,0.2)"/>
  <text x="590" y="312" font-family="Arial, sans-serif" font-size="16" fill="white" text-anchor="middle">
    🎯 أمراض القلب التداخلية
  </text>

  <!-- Bottom text -->
  <text x="740" y="375" font-family="Arial, sans-serif" font-size="16" fill="rgba(255,255,255,0.8)" text-anchor="end" direction="rtl">
    أ.م.د. حبيب جيل | أخصائي أمراض القلب
  </text>
</svg>
