<svg xmlns="http://www.w3.org/2000/svg" viewBox="0 0 800 400">
  <defs>
    <linearGradient id="bgGrad" x1="0%" y1="0%" x2="100%" y2="100%">
      <stop offset="0%" style="stop-color:#6366F1;stop-opacity:1" />
      <stop offset="50%" style="stop-color:#8B5CF6;stop-opacity:1" />
      <stop offset="100%" style="stop-color:#A78BFA;stop-opacity:1" />
    </linearGradient>
    <linearGradient id="heartGrad" x1="0%" y1="0%" x2="100%" y2="100%">
      <stop offset="0%" style="stop-color:#EC4899;stop-opacity:1" />
      <stop offset="100%" style="stop-color:#F472B6;stop-opacity:1" />
    </linearGradient>
    <linearGradient id="deviceGrad" x1="0%" y1="0%" x2="100%" y2="100%">
      <stop offset="0%" style="stop-color:#10B981;stop-opacity:1" />
      <stop offset="100%" style="stop-color:#34D399;stop-opacity:1" />
    </linearGradient>
  </defs>
  <rect width="800" height="400" fill="url(#bgGrad)"/>
  <circle cx="650" cy="80" r="60" fill="rgba(255,255,255,0.1)"/>
  <circle cx="720" cy="150" r="40" fill="rgba(255,255,255,0.08)"/>
  <circle cx="100" cy="320" r="50" fill="rgba(255,255,255,0.1)"/>
  <g transform="translate(480, 50)">
    <path d="M100,30 C60,-10 0,20 0,70 C0,120 50,160 100,200 C150,160 200,120 200,70 C200,20 140,-10 100,30" fill="url(#heartGrad)" opacity="0.9"/>
    <ellipse cx="60" cy="130" rx="25" ry="20" fill="url(#deviceGrad)" opacity="0.95"/>
    <rect x="50" y="125" width="20" height="30" fill="#059669"/>
    <path d="M85,130 Q120,100 140,60" fill="none" stroke="#34D399" stroke-width="8" stroke-linecap="round"/>
    <path d="M60,150 L60,200 L80,220" fill="none" stroke="white" stroke-width="3" stroke-dasharray="5,3"/>
    <rect x="70" y="210" width="30" height="20" rx="3" fill="rgba(255,255,255,0.9)"/>
    <rect x="75" y="215" width="20" height="10" rx="2" fill="#8B5CF6"/>
    <path d="M40,120 L55,125" fill="none" stroke="white" stroke-width="2"/>
    <polygon points="55,125 50,120 50,130" fill="white"/>
    <path d="M110,80 L125,65" fill="none" stroke="white" stroke-width="2"/>
    <polygon points="125,65 118,68 122,75" fill="white"/>
    <circle cx="60" cy="130" r="10" fill="rgba(255,255,255,0.5)" opacity="0.6">
      <animate attributeName="r" values="10;18;10" dur="1s" repeatCount="indefinite"/>
      <animate attributeName="opacity" values="0.6;0.2;0.6" dur="1s" repeatCount="indefinite"/>
    </circle>
  </g>
  <text x="60" y="100" font-family="Arial, sans-serif" font-size="38" font-weight="bold" fill="white">LVAD</text>
  <text x="60" y="145" font-family="Arial, sans-serif" font-size="20" fill="rgba(255,255,255,0.9)">Sol Ventrikul Destek Cihazi</text>
  <text x="60" y="175" font-family="Arial, sans-serif" font-size="16" fill="rgba(255,255,255,0.8)">Mekanik Kalp Destegi</text>
  <g transform="translate(60, 200)">
    <rect x="0" y="0" width="120" height="50" rx="10" fill="rgba(255,255,255,0.15)"/>
    <text x="60" y="22" font-family="Arial, sans-serif" font-size="11" fill="white" text-anchor="middle">Kopru Tedavi</text>
    <text x="60" y="38" font-family="Arial, sans-serif" font-size="10" fill="rgba(255,255,255,0.8)" text-anchor="middle">Nakle Gecis</text>
  </g>
  <g transform="translate(200, 200)">
    <rect x="0" y="0" width="120" height="50" rx="10" fill="rgba(255,255,255,0.15)"/>
    <text x="60" y="22" font-family="Arial, sans-serif" font-size="11" fill="white" text-anchor="middle">Surekli Destek</text>
    <text x="60" y="38" font-family="Arial, sans-serif" font-size="10" fill="rgba(255,255,255,0.8)" text-anchor="middle">7/24 Calisir</text>
  </g>
  <text x="60" y="330" font-family="Arial, sans-serif" font-size="15" fill="rgba(255,255,255,0.8)">Doc. Dr. Habib CIL | Kardiyoloji Uzmani</text>
</svg>
