<svg xmlns="http://www.w3.org/2000/svg" viewBox="0 0 800 400">
  <defs>
    <linearGradient id="bgGrad" x1="0%" y1="0%" x2="100%" y2="100%">
      <stop offset="0%" style="stop-color:#6366F1;stop-opacity:1" />
      <stop offset="50%" style="stop-color:#8B5CF6;stop-opacity:1" />
      <stop offset="100%" style="stop-color:#A78BFA;stop-opacity:1" />
    </linearGradient>
    <linearGradient id="iconGrad" x1="0%" y1="0%" x2="0%" y2="100%">
      <stop offset="0%" style="stop-color:#EC4899;stop-opacity:1" />
      <stop offset="100%" style="stop-color:#F472B6;stop-opacity:1" />
    </linearGradient>
  </defs>

  <rect width="800" height="400" fill="url(#bgGrad)"/>

  <circle cx="150" cy="80" r="60" fill="rgba(255,255,255,0.1)"/>
  <circle cx="80" cy="150" r="40" fill="rgba(255,255,255,0.08)"/>
  <circle cx="700" cy="320" r="50" fill="rgba(255,255,255,0.1)"/>

  <g transform="translate(150, 100)">
    <ellipse cx="100" cy="100" rx="40" ry="70" fill="url(#iconGrad)" opacity="0.9"/>
    <line x1="100" y1="170" x2="100" y2="240" stroke="white" stroke-width="4"/>
    <path d="M 50 100 L 150 100" stroke="white" stroke-width="4" stroke-dasharray="5,5"/>
  </g>

  <text x="740" y="110" font-family="Arial, sans-serif" font-size="38" font-weight="bold" fill="white" text-anchor="end">
    رأب الصمام بالبالون
  </text>
  <text x="740" y="160" font-family="Arial, sans-serif" font-size="24" fill="rgba(255,255,255,0.9)" text-anchor="end">
    توسيع الصمام
  </text>

  <g transform="translate(610, 200)">
    <rect x="0" y="0" width="130" height="55" rx="10" fill="rgba(255,255,255,0.15)"/>
    <text x="65" y="25" font-family="Arial, sans-serif" font-size="12" fill="white" text-anchor="middle">تدخل طفيف</text>
    <text x="65" y="43" font-family="Arial, sans-serif" font-size="11" fill="rgba(255,255,255,0.8)" text-anchor="middle">بدون جراحة</text>
  </g>

  <g transform="translate(460, 200)">
    <rect x="0" y="0" width="130" height="55" rx="10" fill="rgba(255,255,255,0.15)"/>
    <text x="65" y="25" font-family="Arial, sans-serif" font-size="12" fill="white" text-anchor="middle">تعافي سريع</text>
    <text x="65" y="43" font-family="Arial, sans-serif" font-size="11" fill="rgba(255,255,255,0.8)" text-anchor="middle">خروج في يوم</text>
  </g>

  <text x="740" y="340" font-family="Arial, sans-serif" font-size="16" fill="rgba(255,255,255,0.8)" text-anchor="end">
    أ.م.د. حبيب جيل
  </text>
</svg>
