<svg xmlns="http://www.w3.org/2000/svg" viewBox="0 0 32 32">
  <defs>
    <linearGradient id="heartGrad" x1="0%" y1="0%" x2="100%" y2="100%">
      <stop offset="0%" style="stop-color:#3B82F6"/>
      <stop offset="100%" style="stop-color:#1E40AF"/>
    </linearGradient>
  </defs>
  <!-- Background circle -->
  <circle cx="16" cy="16" r="15" fill="url(#heartGrad)"/>
  <!-- Heart icon -->
  <path d="M16 26C16 26 6 20 6 13C6 10 8.5 7 12 7C14 7 15.5 8.5 16 10C16.5 8.5 18 7 20 7C23.5 7 26 10 26 13C26 20 16 26 16 26Z" fill="#FFFFFF"/>
  <!-- ECG line -->
  <path d="M8 15L11 15L12 12L14 18L16 13L18 16L20 15L24 15" fill="none" stroke="#EF4444" stroke-width="1.5" stroke-linecap="round" stroke-linejoin="round"/>
</svg>

