<svg xmlns="http://www.w3.org/2000/svg" viewBox="0 0 800 400">
  <defs>
    <linearGradient id="bgGrad" x1="0%" y1="0%" x2="100%" y2="100%">
      <stop offset="0%" style="stop-color:#6366F1;stop-opacity:1" />
      <stop offset="50%" style="stop-color:#8B5CF6;stop-opacity:1" />
      <stop offset="100%" style="stop-color:#A78BFA;stop-opacity:1" />
    </linearGradient>
    <linearGradient id="heartGrad" x1="0%" y1="0%" x2="100%" y2="100%">
      <stop offset="0%" style="stop-color:#EC4899;stop-opacity:1" />
      <stop offset="100%" style="stop-color:#F472B6;stop-opacity:1" />
    </linearGradient>
  </defs>
  <rect width="800" height="400" fill="url(#bgGrad)"/>
  <circle cx="650" cy="80" r="60" fill="rgba(255,255,255,0.1)"/>
  <circle cx="720" cy="150" r="40" fill="rgba(255,255,255,0.08)"/>
  <circle cx="100" cy="320" r="50" fill="rgba(255,255,255,0.1)"/>
  <g transform="translate(480, 50)">
    <ellipse cx="100" cy="100" rx="90" ry="80" fill="none" stroke="rgba(255,255,255,0.3)" stroke-width="2" stroke-dasharray="10,5"/>
    <ellipse cx="100" cy="100" rx="70" ry="60" fill="rgba(236,72,153,0.2)" stroke="url(#heartGrad)" stroke-width="2"/>
    <path d="M80,30 C60,0 20,20 20,60 C20,100 50,130 80,160 C110,130 140,100 140,60 C140,20 100,0 80,30" fill="url(#heartGrad)" opacity="0.7" transform="translate(20, 10) scale(0.7)"/>
    <line x1="180" y1="80" x2="250" y2="80" stroke="white" stroke-width="3"/>
    <line x1="180" y1="120" x2="250" y2="120" stroke="white" stroke-width="3"/>
    <polygon points="250,70 270,100 250,130" fill="white"/>
    <path d="M30,100 L50,100 L60,70 L75,130 L90,90 L100,110 L110,100 L170,100" fill="none" stroke="white" stroke-width="2" opacity="0.8"/>
    <ellipse cx="100" cy="180" rx="25" ry="15" fill="rgba(255,255,255,0.2)"/>
    <rect x="85" y="160" width="30" height="25" fill="rgba(100,116,139,0.8)" rx="3"/>
  </g>
  <text x="60" y="100" font-family="Arial, sans-serif" font-size="36" font-weight="bold" fill="white">Pericardiocentesis</text>
  <text x="60" y="150" font-family="Arial, sans-serif" font-size="22" fill="rgba(255,255,255,0.9)">Pericardial Fluid Drainage</text>
  <g transform="translate(60, 190)">
    <rect x="0" y="0" width="120" height="50" rx="10" fill="rgba(255,255,255,0.15)"/>
    <text x="60" y="22" font-family="Arial, sans-serif" font-size="11" fill="white" text-anchor="middle">95%+</text>
    <text x="60" y="38" font-family="Arial, sans-serif" font-size="10" fill="rgba(255,255,255,0.8)" text-anchor="middle">Success Rate</text>
  </g>
  <g transform="translate(200, 190)">
    <rect x="0" y="0" width="120" height="50" rx="10" fill="rgba(255,255,255,0.15)"/>
    <text x="60" y="22" font-family="Arial, sans-serif" font-size="11" fill="white" text-anchor="middle">30-60 min</text>
    <text x="60" y="38" font-family="Arial, sans-serif" font-size="10" fill="rgba(255,255,255,0.8)" text-anchor="middle">Procedure Time</text>
  </g>
  <text x="60" y="330" font-family="Arial, sans-serif" font-size="15" fill="rgba(255,255,255,0.8)">Assoc. Prof. Dr. Habib CIL | Cardiology Specialist</text>
</svg>
